<?xml version="1.0" standalone="no"?>
<!DOCTYPE svg PUBLIC "-//W3C//DTD SVG 20010904//EN"
 "http://www.w3.org/TR/2001/REC-SVG-20010904/DTD/svg10.dtd">
<svg version="1.0" xmlns="http://www.w3.org/2000/svg"
 width="512.000000pt" height="512.000000pt" viewBox="0 0 512.000000 512.000000"
 preserveAspectRatio="xMidYMid meet">
<metadata>
Created by potrace 1.11, written by Peter Selinger 2001-2013
</metadata>
<g transform="translate(0.000000,512.000000) scale(0.100000,-0.100000)"
fill="#000000" stroke="none">
<path d="M2490 5114 c-64 -25 -127 -66 -352 -236 -142 -106 -268 -201 -280
-210 -1103 -823 -1749 -1311 -1772 -1338 -59 -70 -78 -164 -52 -251 16 -56
163 -266 250 -360 73 -77 169 -107 266 -82 29 7 55 12 56 10 2 -2 4 -543 4
-1203 0 -931 3 -1208 13 -1239 27 -87 68 -135 147 -177 l45 -23 1745 0 1745 0
49 25 c27 14 65 44 86 67 74 85 70 4 70 1349 0 662 3 1204 8 1204 4 -1 29 -7
56 -14 91 -24 197 9 263 82 18 20 78 98 133 172 114 153 137 206 125 296 -8
65 -27 108 -69 152 -17 18 -206 165 -421 325 -214 161 -394 296 -400 300 -10
8 -118 89 -1020 763 -259 193 -486 358 -505 368 -35 17 -162 31 -190 20z m165
-212 c63 -46 135 -100 155 -115 9 -7 139 -104 290 -217 151 -113 281 -210 290
-217 34 -26 1418 -1061 1457 -1088 67 -48 90 -105 61 -158 -6 -12 -56 -81
-110 -153 -108 -144 -134 -164 -189 -145 -25 8 -214 143 -349 248 -21 16 -827
618 -1279 956 -205 153 -384 282 -397 287 -15 6 -34 6 -48 0 -14 -5 -321 -231
-683 -501 -925 -692 -1276 -954 -1308 -975 -72 -47 -104 -29 -223 129 -54 73
-104 142 -110 154 -15 27 -15 65 -1 95 6 13 224 183 485 378 261 195 485 363
497 372 12 9 117 87 232 173 116 86 223 166 239 178 314 238 846 631 861 637
34 13 78 0 130 -38z m12 -874 c54 -40 103 -76 108 -81 6 -4 359 -268 785 -587
l775 -579 -1 -1266 c-1 -1253 -1 -1266 -21 -1293 -11 -15 -33 -31 -50 -37 -19
-7 -618 -10 -1715 -10 -1582 0 -1686 1 -1711 18 -14 9 -32 27 -38 39 -15 28
-18 2544 -3 2557 5 5 286 215 623 467 338 253 730 545 870 651 141 105 262
192 268 192 7 1 57 -31 110 -71z"/>
<path d="M1740 2954 c-336 -73 -596 -307 -689 -619 -28 -95 -31 -115 -38 -230
-14 -261 91 -541 306 -810 30 -38 65 -79 76 -91 11 -12 36 -39 56 -60 94 -102
264 -247 414 -355 50 -35 92 -66 95 -69 6 -6 10 -9 205 -126 88 -54 211 -122
273 -152 132 -65 119 -66 306 23 236 111 500 274 690 428 109 87 294 267 342
332 16 22 37 49 47 60 86 95 211 343 251 500 40 156 43 372 7 505 -70 263
-236 468 -474 585 -135 67 -225 87 -382 89 -71 0 -151 -2 -176 -7 -147 -24
-323 -109 -438 -213 l-50 -45 -63 53 c-121 102 -254 168 -413 204 -61 13 -279
12 -345 -2z m354 -184 c125 -32 227 -91 330 -193 50 -49 101 -93 113 -98 36
-13 71 6 132 73 120 130 264 209 435 235 70 11 211 5 277 -12 329 -86 552
-371 551 -708 -1 -445 -315 -876 -909 -1249 -135 -84 -431 -238 -458 -238 -14
0 -97 41 -230 115 -97 54 -301 189 -415 274 -482 360 -732 734 -732 1099 0
318 196 589 499 691 34 11 85 24 115 27 29 3 54 7 56 9 10 8 173 -9 236 -25z"/>
<path d="M2475 2363 c-71 -25 -142 -110 -160 -191 -12 -56 -7 -132 12 -184 70
-197 306 -227 408 -53 35 58 46 99 46 165 0 181 -157 316 -306 263z m91 -171
c53 -34 50 -162 -5 -191 -38 -21 -88 51 -77 110 3 13 5 29 5 35 1 15 40 54 54
54 7 0 17 -4 23 -8z"/>
<path d="M1967 2195 c-62 -16 -113 -58 -151 -125 -28 -50 -31 -63 -31 -145 0
-78 4 -97 27 -140 32 -61 70 -99 123 -121 174 -73 347 99 313 312 -10 67 -29
107 -72 152 -58 63 -133 86 -209 67z m80 -184 c43 -40 37 -157 -8 -182 -39
-21 -87 36 -82 99 0 6 1 21 2 32 1 21 43 70 59 70 4 0 18 -9 29 -19z"/>
<path d="M3022 2196 c-59 -13 -133 -80 -162 -148 -78 -180 39 -403 211 -401
132 2 230 114 235 268 4 112 -49 215 -134 263 -37 20 -103 29 -150 18z m83
-186 c37 -41 36 -134 -3 -173 -58 -57 -122 74 -75 154 15 24 26 32 54 38 3 0
14 -8 24 -19z"/>
<path d="M2410 1744 c-98 -21 -202 -76 -274 -148 -78 -76 -121 -150 -142 -244
-44 -200 40 -325 213 -316 37 2 109 13 158 24 130 29 178 30 300 4 205 -43
284 -38 349 22 94 88 78 300 -33 444 -80 104 -187 177 -310 210 -65 17 -187
19 -261 4z m225 -177 c144 -38 251 -160 262 -298 l6 -61 -69 5 c-38 3 -94 12
-124 20 -138 36 -194 37 -359 3 -148 -31 -187 -33 -193 -8 -8 30 19 138 45
178 47 75 121 129 222 162 30 9 172 9 210 -1z"/>
</g>
</svg>
